<?xml version="1.0" encoding="UTF-8"?>
<svg id="Layer_1" data-name="Layer 1" xmlns="http://www.w3.org/2000/svg" width="1200" height="1200" xmlns:xlink="http://www.w3.org/1999/xlink" viewBox="0 0 1200 1200">
  <defs>
    <radialGradient id="radial-gradient" cx="593.99" cy="568.41" fx="593.99" fy="568.41" r="537.49" gradientTransform="translate(0 38.8) scale(1 .93)" gradientUnits="userSpaceOnUse">
      <stop offset=".16" stop-color="#02adef"/>
      <stop offset="1" stop-color="#2a59be"/>
    </radialGradient>
    <filter id="outer-glow-1" filterUnits="userSpaceOnUse">
      <feOffset dx="0" dy="0"/>
      <feGaussianBlur result="blur" stdDeviation="20"/>
      <feFlood flood-color="#02adef" flood-opacity="1"/>
      <feComposite in2="blur" operator="in"/>
      <feComposite in="SourceGraphic"/>
    </filter>
    <linearGradient id="linear-gradient" x1="236.25" y1="837.41" x2="665.91" y2="837.41" gradientTransform="translate(1262.47) rotate(-180) scale(1 -1)" gradientUnits="userSpaceOnUse">
      <stop offset="0" stop-color="#dead0a" stop-opacity="0"/>
      <stop offset="1" stop-color="#7a1123" stop-opacity=".4"/>
    </linearGradient>
    <linearGradient id="linear-gradient-2" x1="236.25" y1="992.29" x2="267.49" y2="992.29" xlink:href="#linear-gradient"/>
    <linearGradient id="linear-gradient-3" x1="466.7" y1="995.77" y2="995.77" xlink:href="#linear-gradient"/>
    <linearGradient id="linear-gradient-4" x1="267.49" y1="1018.76" x2="466.7" y2="1018.76" gradientTransform="translate(1262.47) rotate(-180) scale(1 -1)" gradientUnits="userSpaceOnUse">
      <stop offset="0" stop-color="#dead0a" stop-opacity="0"/>
      <stop offset="1" stop-color="#fff" stop-opacity=".3"/>
    </linearGradient>
  </defs>
  <path d="m119.2,227.01l388.07-52.85.17,374.32-387.88,2.21-.35-323.68h0Zm387.88,364.6l.3,374.65-387.88-53.33-.02-323.83,387.6,2.51h0Zm47.04-424.36l514.54-75.1v451.57l-514.54,4.08V167.25h0Zm514.66,427.89l-.12,449.54-514.54-72.62-.72-377.76,515.38.84Z" style="fill: url(#radial-gradient); filter: url(#outer-glow-1);"/>
  <g id="Artwork_35" data-name="Artwork 35">
    <g>
      <path id="cloud" d="m201.18,864.67c-1.12-6.67-6.31-11.85-12.53-12.05l-2.25-.07c-1.68-9.22-8.98-15.93-17.59-15.93s-15.96,6.31-17.62,14.87c-6.38.49-11.38,5.69-11.38,12.19,0,6.97,5.72,13.14,12.75,13.76l18.88,1.66c.99.05,1.78-.78,1.73-1.86-.04-1.01-.79-1.9-1.73-2l-18.88-1.51c-5.04-.4-9.14-4.81-9.14-9.82s4.1-8.93,9.14-8.73c1.86.06,3.69.73,5.2,1.92.72.57,1.71.54,2.33-.08h0c.71-.7.71-1.88.01-2.65h-.01c-.07-.09-.14-.15-.22-.22-1.51-1.17-3.23-1.99-5.04-2.39,1.54-6.59,7.24-11.34,13.94-11.29,7.09.06,13.07,5.77,14.17,13.44-.57.3-1.12.64-1.64,1.02-.81.6-1,1.82-.44,2.73.06.09.12.18.2.27h0c.62.71,1.61.83,2.33.29,1.52-1.13,3.34-1.69,5.2-1.6,4.45.18,8.16,3.88,8.97,8.61.16.97.91,1.71,1.78,1.77h0c.99.07,1.8-.79,1.81-1.93h0c.02-.13.02-.28,0-.41Z" style="fill: #fff;"/>
      <g id="numbers">
        <path d="m178.7,876.55l-1.55-.13v-5.35s.04-.83.04-.83c-.18.18-.35.35-.54.51l-.85.68-.75-1.06,2.37-1.88,1.27.08.02,7.97Z" style="fill: #fff;"/>
        <path d="m185.83,873.08c0,1.41-.21,2.45-.64,3.09-.42.64-1.07.92-1.94.85s-1.48-.47-1.92-1.2c-.44-.73-.65-1.77-.65-3.12s.21-2.44.62-3.09c.41-.65,1.06-.93,1.93-.88s1.48.45,1.92,1.19c.46.74.67,1.8.67,3.16Zm-3.59-.26c0,.98.08,1.69.24,2.14.15.45.42.68.79.71s.62-.17.79-.58c.16-.41.24-1.12.24-2.12s-.08-1.71-.25-2.15c-.16-.44-.42-.68-.78-.7s-.62.18-.79.59c-.16.41-.24,1.12-.24,2.11Z" style="fill: #fff;"/>
        <path d="m178.7,888.66l-1.55-.17v-5.35s.04-.83.04-.83c-.18.17-.35.34-.54.5l-.85.66-.75-1.08,2.37-1.82,1.27.11.02,7.97Z" style="fill: #fff;"/>
        <path d="m184.57,889.28l-1.55-.17v-5.42s.04-.84.04-.84c-.18.18-.35.34-.54.5l-.85.67-.75-1.09,2.37-1.84,1.27.11v8.06h.02Z" style="fill: #fff;"/>
        <path d="m190.46,889.91l-1.55-.17v-5.48s.04-.85.04-.85c-.18.18-.35.35-.54.51l-.85.67-.75-1.1,2.37-1.87,1.27.11.02,8.16Z" style="fill: #fff;"/>
        <path d="m197.59,886.52c0,1.45-.21,2.5-.64,3.15-.42.65-1.07.93-1.94.84s-1.48-.51-1.92-1.27c-.44-.76-.65-1.83-.65-3.22s.21-2.49.62-3.15c.41-.66,1.06-.93,1.93-.85s1.48.49,1.92,1.26c.46.76.68,1.84.67,3.25Zm-3.59-.35c0,1,.08,1.74.24,2.2.15.46.41.7.79.74s.62-.16.79-.58c.16-.42.24-1.14.24-2.15s-.08-1.76-.25-2.21c-.16-.45-.42-.7-.78-.73s-.62.17-.79.59c-.16.42-.24,1.13-.24,2.14Z" style="fill: #fff;"/>
        <path d="m200.94,896.87c0,1.06-.15,1.83-.46,2.3-.31.47-.78.67-1.41.59s-1.08-.4-1.39-.96c-.31-.56-.47-1.35-.47-2.37s.15-1.83.46-2.3c.31-.47.78-.67,1.41-.6s1.08.39,1.4.96c.32.57.47,1.36.46,2.38Zm-2.61-.31c0,.74.06,1.28.16,1.62.07.3.31.52.58.55s.45-.11.57-.42c.12-.32.18-.83.18-1.57s-.06-1.29-.18-1.62c-.12-.33-.31-.53-.57-.56s-.46.11-.57.43c-.11.32-.18.83-.18,1.58h0Z" style="fill: #fff;"/>
        <path d="m204.31,900.32l-1.13-.14v-4.11s.04-.63.04-.63c-.19.19-.32.31-.39.37l-.61.49-.54-.84,1.72-1.36.93.1v6.11h-.01Z" style="fill: #fff;"/>
        <path d="m178.37,894.27c0,1-.15,1.71-.45,2.14-.29.44-.77.62-1.39.54s-1.06-.37-1.37-.91c-.31-.53-.46-1.26-.46-2.21s.15-1.71.45-2.14c.29-.44.75-.63,1.38-.56s1.06.36,1.37.89c.31.53.47,1.28.47,2.24Zm-2.56-.3c0,.69.06,1.2.16,1.51.07.28.31.5.57.51.26.03.45-.1.55-.39.11-.29.18-.78.18-1.47s-.06-1.21-.18-1.51c-.12-.31-.29-.49-.55-.52s-.45.1-.55.39c-.11.29-.19.78-.18,1.48h0Z" style="fill: #fff;"/>
        <path d="m181.67,897.52l-1.11-.14v-3.84s.04-.59.04-.59c-.19.18-.31.3-.38.35l-.6.46-.53-.79,1.68-1.27.91.1v5.71Z" style="fill: #fff;"/>
        <path d="m186.74,895.26c0,1.01-.15,1.74-.45,2.18-.29.44-.77.63-1.39.56s-1.06-.38-1.37-.92c-.31-.54-.46-1.28-.46-2.25s.15-1.74.45-2.18c.29-.44.75-.64,1.38-.57s1.06.37,1.37.91c.31.54.47,1.3.47,2.28Zm-2.56-.3c0,.7.06,1.22.16,1.53.07.28.31.5.57.52.27.03.45-.1.55-.4.11-.3.18-.8.18-1.5s-.06-1.23-.18-1.54c-.12-.31-.31-.5-.55-.53s-.45.1-.55.4c-.11.3-.19.79-.18,1.51h0Z" style="fill: #fff;"/>
        <path d="m190.03,898.55l-1.11-.14v-3.9s.04-.6.04-.6c-.19.19-.32.3-.39.36l-.6.47-.53-.8,1.68-1.3.91.1v5.81Z" style="fill: #fff;"/>
        <path d="m177.27,901.36c0,.71-.11,1.22-.32,1.54-.21.32-.54.44-1,.37-.39-.03-.77-.28-.98-.67-.22-.39-.33-.92-.33-1.6,0-.72.11-1.23.32-1.54.21-.32.54-.44.99-.38.39.02.77.28.99.66.21.4.33.94.33,1.62Zm-1.85-.24c0,.5.04.86.12,1.08.06.25.28.41.51.37h.01c.14-.02.25-.12.28-.27.08-.21.12-.56.12-1.05.01-.37-.02-.74-.13-1.1-.06-.24-.28-.41-.49-.38h-.02c-.14.02-.25.12-.28.27-.08.36-.12.71-.11,1.08Z" style="fill: #fff;"/>
        <path d="m179.64,903.73l-.8-.11v-2.75s.02-.42.02-.42c-.13.12-.22.21-.27.25l-.44.31-.39-.56,1.21-.89.65.08v4.09Z" style="fill: #fff;"/>
        <path d="m187.73,907.95c0,.73-.11,1.25-.33,1.57-.22.32-.55.44-1,.37-.39-.03-.77-.29-.98-.69-.22-.4-.33-.94-.33-1.64s.11-1.25.32-1.58c.21-.32.54-.44.99-.38.39.03.77.29.99.68.24.41.34.96.34,1.66Zm-1.84-.26c0,.51.04.87.12,1.11.06.24.28.42.49.4h.02c.14-.01.25-.12.28-.27.08-.21.12-.57.12-1.08.01-.38-.02-.76-.13-1.12-.05-.2-.21-.37-.4-.39s-.35.08-.4.28c-.07.2-.11.56-.11,1.08Z" style="fill: #fff;"/>
        <path d="m190.11,910.38l-.8-.12v-2.81s.02-.43.02-.43c-.13.13-.22.22-.27.25l-.44.33-.39-.59,1.21-.9.66.09v4.18Z" style="fill: #fff;"/>
        <path d="m196.36,903.07c0,1.03-.15,1.77-.45,2.22-.29.45-.77.64-1.39.55s-1.06-.4-1.37-.95c-.31-.55-.46-1.31-.46-2.3s.15-1.77.45-2.22c.29-.45.75-.64,1.38-.57s1.06.38,1.37.94c.31.56.47,1.33.47,2.33Zm-2.56-.33c0,.73.06,1.25.16,1.56.07.29.31.52.57.54.26.03.45-.1.55-.4.11-.3.18-.81.18-1.52s-.06-1.25-.18-1.58c-.12-.33-.31-.51-.57-.55s-.45.1-.55.4c-.11.3-.16.84-.16,1.55h0Z" style="fill: #fff;"/>
        <path d="m199.66,906.46l-1.11-.15v-3.98s.04-.61.04-.61c-.19.19-.31.31-.38.36l-.6.47-.53-.83,1.68-1.3.91.11v5.92h-.01Z" style="fill: #fff;"/>
        <path d="m204.73,904.17c0,1.05-.15,1.8-.45,2.26-.29.46-.77.65-1.39.56s-1.06-.4-1.37-.96c-.31-.56-.46-1.33-.46-2.34s.15-1.8.45-2.26c.29-.46.75-.66,1.38-.58s1.06.39,1.37.95c.31.56.47,1.35.47,2.36Zm-2.56-.33c0,.74.06,1.27.16,1.59.07.29.31.52.57.55.26.03.45-.1.55-.41.11-.31.18-.82.18-1.55s-.06-1.27-.18-1.61c-.12-.34-.31-.52-.55-.55s-.45.1-.55.41c-.11.31-.18.85-.18,1.57h0Z" style="fill: #fff;"/>
        <path d="m196.7,878.01l-1.55-.13v-5.55s.04-.86.04-.86c-.18.19-.35.36-.54.53l-.85.71-.75-1.09,2.37-1.95,1.28.08v8.26h.01Z" style="fill: #fff;"/>
        <path d="m203.84,874.4c0,1.47-.21,2.54-.64,3.2-.42.66-1.07.96-1.94.89s-1.48-.48-1.92-1.24c-.44-.75-.65-1.84-.65-3.23s.21-2.53.62-3.21c.41-.68,1.06-.97,1.93-.91s1.48.46,1.92,1.23c.44.77.66,1.86.67,3.27Zm-3.6-.26c0,1.01.08,1.76.24,2.22.15.47.42.7.79.73s.62-.18.79-.61c.16-.43.24-1.16.24-2.19s-.08-1.78-.25-2.23c-.16-.45-.42-.7-.78-.72s-.62.18-.79.61c-.16.43-.24,1.16-.24,2.19h0Z" style="fill: #fff;"/>
      </g>
    </g>
  </g>
  <g id="Lock_-_closed" data-name="Lock - closed">
    <path d="m980.96,882.32s-93.03,4.65-212.13-9.96c-119.1-14.61-172.28-44.22-172.28-44.22l42.71-36.34,386.95,36.34-31.24,42.71-14.02,11.47Z" style="fill: #dead0a;"/>
    <path d="m980.96,882.32s-93.03,4.65-212.13-9.96c-119.1-14.61-172.28-44.22-172.28-44.22l42.71-36.34,386.95,36.34-31.24,42.71-14.02,11.47Z" style="fill: url(#linear-gradient);"/>
    <path d="m597.11,828.09l-.55-.13,45.9-22.3,60.56,6.37-31.73,30.49c-39.65-7.06-69.86-13.51-74.18-14.44Z" style="fill: #1c2538; opacity: .5;"/>
    <path d="m994.99,870.85s-238.42-2.55-398.43-42.71v287.5s191.88,79.69,398.43,40.8v-285.59Z" style="fill: #dead0a;"/>
    <polygon points="994.99 870.85 1026.22 828.14 1026.22 1121.38 994.99 1156.44 994.99 870.85" style="fill: #dead0a;"/>
    <polygon points="994.99 870.85 1026.22 828.14 1026.22 1121.38 994.99 1156.44 994.99 870.85" style="fill: url(#linear-gradient-2);"/>
    <path d="m867.47,865.76l55.81-28.35,60.24,5.2-27.46,27.33c-23.44-.87-55.16-2.22-88.59-4.18Z" style="fill: #1c2538; opacity: .5;"/>
    <path d="m596.56,828.13c60.87,15.28,133.09,25.8,199.21,32.13v303.14c-115.91-12.48-199.21-47.07-199.21-47.07v-288.19Z" style="fill: url(#linear-gradient-3);"/>
    <path d="m922.95,837.06s30.55,20.32,60.56,5.1c0,0,0-38.25,0-79.05,0-40.8-24.86-126.86-103.37-165.1-91.53-44.59-171.39-8.29-197.53,22.95-26.14,31.24-40.16,43.99-40.16,184.87,0,0,17.85,25.5,60.56,6.37,0,0,0-26.77,0-87.97,0-61.2,50.89-104.55,117.24-86.06,66.35,18.49,101.42,73.95,101.42,129.41,0,55.46,1.27,69.49,1.27,69.49Z" style="fill: #727c92;"/>
    <path d="m942.23,839.4s0-9.87,0-60.9c0-51.03-21.59-147.68-120.22-159.26-98.63-11.58-128.44,53.43-128.44,109.26s0,81.9,0,81.9c-17.92,4.96-34.23-.28-34.23-.28v-65.6c0-145.55,107.9-182.81,198.73-150.99s117.48,114.18,117.48,163.02,0,82.31,0,82.31c0,0-5.68,3.24-17.59,3.24-10.4,0-15.73-2.71-15.73-2.71Z" style="fill: #d4d8df;"/>
    <path d="m968.42,847.09v-83.34c0-53.55-15.9-101.57-58.22-136.42-42.32-34.85-120.48-64.39-183.59-14.02,0,0,35.6-18.97,102.63-7.65,67.04,11.32,125.58,86.06,125.58,155.55v86.43s4.45.41,7.99.09,5.6-.62,5.6-.62Z" style="fill: #fff;"/>
    <path d="m922.94,837.08s-1.28-14.02-1.28-69.49c0-55.46-35.06-110.92-101.42-129.41-52.68-14.68-95.61,9.63-111.07,50.9,0,0,0,0,0,0,5.81-26.35,41.57-72.49,116.05-56.51,74.47,15.98,94.07,79,100.4,103.42,6.33,24.42,5.43,77.49,6.33,92.17.9,14.68,33.79,19.28,51.54,6.42v7.6c-30.01,15.22-60.56-5.1-60.56-5.1Z" style="fill: #1c2538; opacity: .5;"/>
    <path d="m647.63,797.25c.92,4.74,4.57,15.28,28.37,15.28,23.79,0,27.02-7.73,27.02-7.73v7.42c-42.71,19.12-60.56-6.37-60.56-6.37,0-71.87,3.65-110.38,10.7-135.03-6.08,33.51-6.44,121.7-5.52,126.44Z" style="fill: #1c2538; opacity: .5;"/>
    <path d="m994.99,870.85s-37.1,43.57-202.24,29.41c-165.14-14.17-196.18-72.12-196.18-72.12,0,0,110.66,24.09,199.21,32.12,89.43,8.12,199.21,10.59,199.21,10.59Z" style="fill: #fff; opacity: .4;"/>
    <path d="m994.99,1153.5l-14.02-271.18s-93.03,4.65-212.13-9.96c-119.1-14.61-172.28-44.22-172.28-44.22,0,0,112.57,24.46,199.21,32.12,88.57,7.83,199.21,10.59,199.21,10.59v282.65Z" style="fill: #fff; opacity: .4;"/>
    <polygon points="1026.22 1037.06 994.99 1105.24 994.99 1156.44 1026.22 1121.38 1026.22 1037.06" style="fill: #1c2538; opacity: .5;"/>
    <path d="m994.99,870.62v285.59c-70.46,13.26-139.2,12.73-199.21,6.27v-261.98c162.72,14.61,199.21-29.89,199.21-29.89Z" style="fill: url(#linear-gradient-4);"/>
    <path d="m621.03,1081.33c123.5,75.85,373.95,56.67,373.95,56.67v18.43c-206.54,38.89-398.43-40.8-398.43-40.8v-287.5s24.47,253.2,24.47,253.2Z" style="fill: #1c2538; opacity: .5;"/>
    <path d="m814.29,1065.73l-14.71-54.78s18.84-6.93,16.01-28.34c-3.18-24-39.67-37.03-57.63-20.72-16.59,15.06-7.78,36.76,7.28,45.07l-14.39,52.65c-.68,2.47,1.02,4.96,3.56,5.24l55.4,6.12c2.92.32,5.25-2.39,4.48-5.23Z" style="fill: #dead0a;"/>
    <path d="m767.78,1045.84l12.67-46.38c-13.42-7.4-21.26-26.73-6.48-40.14,2.31-2.1,4.97-3.63,7.83-4.69,15.85,1.43,31.74,12.33,33.79,27.8,2.84,21.41-16.01,28.34-16.01,28.34l12.02,44.76-40.26-4.45c-2.55-.28-4.24-2.77-3.56-5.24Z" style="fill: #1c2538;"/>
    <path d="m814.29,1065.73l-14.71-54.78s18.84-6.93,16.01-28.34c-3.18-24-39.67-37.03-57.63-20.72-16.59,15.06-7.78,36.76,7.28,45.07l-14.39,52.65c-.68,2.47,1.02,4.96,3.56,5.24l55.4,6.12c2.92.32,5.25-2.39,4.48-5.23Z" style="fill: #1c2538; opacity: .5;"/>
  </g>
</svg>