<?xml version="1.0" encoding="iso-8859-1"?>
<!-- Uploaded to: SVG Repo, www.svgrepo.com, Generator: SVG Repo Mixer Tools -->
<!DOCTYPE svg PUBLIC "-//W3C//DTD SVG 1.1//EN" "http://www.w3.org/Graphics/SVG/1.1/DTD/svg11.dtd">
<svg fill="#000000" height="800px" width="800px" version="1.1" id="Capa_1" xmlns="http://www.w3.org/2000/svg" xmlns:xlink="http://www.w3.org/1999/xlink" 
	 viewBox="0 0 294.989 294.989" xml:space="preserve">
<g>
	<path d="M293.731,86.59c0-6.072-2.552-11.448-6.971-16.117c3.588-3.662,6.032-7.768,6.974-12.327l-0.003-20.049
		C293.731,13.351,251.615,0,211.988,0c-11.704,0-23.624,1.166-34.612,3.444c10.309,4.526,17.953,9.649,23.589,14.916
		c3.527-0.226,7.202-0.35,11.023-0.35c39.533,0,63.733,13.006,63.733,20.088c0,6.826-22.471,19.143-59.469,20.034l0.003,18.931
		l-0.309,1.502c-0.882,4.27-2.441,8.368-4.661,12.266c0.219,0.408,0.412,0.824,0.616,1.237c0.029,0,0.059,0.001,0.087,0.001
		c21.336,0,43.635-3.859,59.615-11.368c2.686,2.131,4.118,4.182,4.118,5.89c0,6.834-22.547,19.184-59.658,20.038
		c0.112,1.226,0.188,2.458,0.188,3.699l0.004,26.054l-0.309,1.501c-0.184,0.889-0.403,1.768-0.645,2.641
		c20.31-0.377,41.146-4.212,56.302-11.334c2.686,2.131,4.118,4.182,4.118,5.89c0,6.986-23.565,19.733-62.16,20.075
		c1.772,4.65,2.69,9.515,2.69,14.491l0.003,19.352c20.007-0.479,40.431-4.307,55.349-11.314c2.686,2.13,4.118,4.182,4.118,5.89
		c0,6.957-23.365,19.622-61.669,20.066c-0.765,1.989-1.686,3.935-2.768,5.833c3.273,6.114,4.967,12.703,4.967,19.497l0.001,8.515
		c35.854-0.855,73.062-12.444,77.481-33.864l-0.003-20.047c0-6.073-2.552-11.448-6.971-16.117c3.588-3.662,6.032-7.767,6.974-12.326
		l-0.003-20.05c0-6.069-2.552-11.448-6.971-16.117c3.588-3.659,6.032-7.767,6.974-12.327L293.731,86.59z"/>
	<g>
		<path d="M201.251,110.327c0-7.429-3.121-14.004-8.526-19.716c4.388-4.48,7.379-9.502,8.53-15.079l-0.004-24.527
			c0-30.273-51.521-46.606-99.998-46.606S1.255,20.731,1.255,51.01l0.023,24.008l0.055,0.514c1.149,5.558,4.12,10.566,8.475,15.031
			c-5.426,5.723-8.553,12.322-8.553,19.766l0.023,24.012l0.055,0.51c1.149,5.558,4.12,10.567,8.475,15.031
			c-5.426,5.727-8.553,12.322-8.553,19.766l0.023,24.012l0.055,0.514c1.149,5.557,4.12,10.566,8.475,15.031
			c-5.426,5.723-8.553,12.318-8.553,19.766l0.023,24.012l0.055,0.51c5.624,27.245,54.525,41.497,99.92,41.497
			c45.395,0,94.379-14.252,100.002-41.497l-0.004-24.524c0-7.429-3.121-14.004-8.526-19.716c4.388-4.48,7.379-9.501,8.53-15.079
			l-0.004-24.528c0-7.425-3.121-14.004-8.526-19.716c4.388-4.476,7.379-9.501,8.53-15.079L201.251,110.327z M179.219,169.646
			c0,8.663-29.604,24.578-77.966,24.578c-48.362,0-77.966-15.915-77.966-24.578c0-2.091,1.756-4.609,5.058-7.219
			c19.529,9.193,46.792,13.924,72.908,13.924c26.101,0,53.379-4.724,72.929-13.911C177.467,165.047,179.219,167.557,179.219,169.646
			z M179.219,110.327c0,8.663-29.604,24.574-77.966,24.574c-48.362,0-77.966-15.911-77.966-24.574c0-2.095,1.756-4.609,5.058-7.223
			c19.529,9.197,46.792,13.924,72.908,13.924c26.101,0,53.379-4.721,72.929-13.907C177.467,105.728,179.219,108.238,179.219,110.327
			z M101.253,26.431c48.361,0,77.966,15.911,77.966,24.574c0,8.667-29.604,24.577-77.966,24.577
			c-48.362,0-77.966-15.91-77.966-24.577C23.288,42.341,52.891,26.431,101.253,26.431z M101.253,253.542
			c-48.362,0-77.966-15.911-77.966-24.574c0-2.095,1.756-4.609,5.058-7.223c19.529,9.197,46.792,13.924,72.908,13.924
			c26.101,0,53.379-4.724,72.929-13.907c3.285,2.606,5.037,5.116,5.037,7.206C179.219,237.632,149.615,253.542,101.253,253.542z"/>
	</g>
</g>
</svg>